<svg version="1.1" id="Layer_1" xmlns="http://www.w3.org/2000/svg" xmlns:xlink="http://www.w3.org/1999/xlink" x="0px" y="0px" viewBox="-103.3 48 150.1 140.5" style="enable-background:new -103.3 48 150.1 140.5;" xml:space="preserve">
 <g>
  <path d="M-18.6,56.9v-0.5c0-2.2,0.7-4.1,2.1-5.9s3.2-2.6,5.4-2.6c2.2,0,4.1,0.7,5.9,2.1c1.7,1.4,2.7,3.3,2.8,5.6
		c0.2,2.3-0.5,4.3-2.1,5.9c-1.6,1.6-3.4,2.3-5.6,2.3l-1.4,0.5l0.5,0.7l-0.5,2.6l-0.9,7.5c0.3,0.3,0.5,0.6,0.5,0.9l-0.9,4.7
		c-0.3,0.6-0.6,1.1-0.9,1.4l-0.5,1.9c-0.6,2.5-1.2,4.5-1.6,6.1s-0.9,2.8-1.2,3.8v0.9c-0.3,1.6-0.5,2.8-0.7,3.8s-0.7,2.5-1.6,4.7
		c-0.6,1.3-0.6,3.3,0,6.1l0.5,0.5c0,0.9,0.4,2,1.2,3.3s1.2,2.3,1.2,3.3c0.3,6.3-0.2,11.6-1.4,15.9l0.9,2.8c3.8,1.9,4.8,3.9,3.3,6.1
		l2.3,0.9c3.8,1.9,6.4,3.5,8,4.9c1.6,1.4,3.1,2.9,4.7,4.5c1.3,0.3,2.2,0.8,2.8,1.4l1.4,0.5c6.6,4.4,13.1,9.7,19.7,15.9l1.9,1.4v0.5
		l-0.5,0.9l1.4,0.9h0.5c0.9,0.6,1.6,0.9,1.9,0.9h0.5c0.3,0,0.6-0.2,0.9-0.5l0.9-0.5c0.6-0.6,1.3-1.1,1.9-1.4h1.9
		c0.3,0,0.3,0.2,0,0.5l-1.9,0.9l-2.3,2.8h3.3l3.3,0.5c0.9-0.3,1.7-0.6,2.3-0.9l2.3-1.4c0.9-0.3,1.9,0,2.8,0.9h0.5
		c0.3,0.3,0.2,0.8-0.5,1.4l-5.6,5.2c-1.6,1.3-3,2-4.2,2.3l-6.1,4.2c-0.3,0.3-0.6,0.3-0.9,0l-1.4-1.9l-0.9-1.9l-1.2-1.6l-1.4-1.9
		l-1.2-1.4l-0.9-1.2l-1.9-1.4c-0.6,0-1.3-0.2-1.9-0.5l-6.1-4.7c-0.9,0-2-0.5-3.3-1.4c-4.7-4.1-7.8-6.6-9.4-7.5l-2.8-1.9l-5.6-0.9
		c-1.9-0.3-4.4-1.3-7.5-2.8l-3.8-1.9c-2.5-1.3-4.2-1.9-5.2-1.9l-1.9-0.9c-1.3-0.3-2.2-0.6-2.8-0.9l-0.9-0.9c-0.6,0-1.3,0.2-1.9,0.5
		l-9.4,4.7l-11.7,5.2c-3.1,2.5-6.1,4.5-8.9,6.1l-5.2,2.3l-8,5.6c-0.6,0.6-1.3,0.6-1.9,0l-0.9,0.9c-0.9,0.3-1.6,0.5-1.9,0.5l-1.9,0.9
		v0.9h-0.9l-0.9,1.4c-0.6,1.3-1.3,2-1.9,2.1c-0.6,0.2-1,0.4-1.2,0.7c-0.2,0.3-0.3,0.5-0.5,0.7l-0.9,0.9l-1.4,0.9l-2.1-0.2l-2.8,0.5
		l-1.9,0.5c-1.6,0.3-2.8,0.1-3.8-0.7c-0.9-0.8-1.7-2-2.3-3.5c-0.6-0.9-0.3-1.7,0.9-2.3l0.5-0.5c0.3-0.3,0.8-0.5,1.4-0.5h2.8l3.8-1.4
		l1.9-0.5c0-0.6,0.2-1.1,0.5-1.4s0.8-0.5,1.4-0.5v-0.5c-0.3-0.6-0.5-1.3-0.5-1.9c-0.3-0.6-0.4-1.1-0.2-1.4s0.3-0.5,0.5-0.5h0.2
		l0.5,1.4c0.3,1.6,0.8,2,1.4,1.4l0.5-0.9c0.3-0.6,0.8-0.9,1.4-0.9l0.9,0.9l0.9-0.9l-0.5-0.5c0-0.3,0.2-0.5,0.5-0.5l1.9-1.9
		c1.6-1.9,3.4-3.6,5.6-5.2c4.4-3.4,9.1-6.1,14.1-8c1.6-1.6,3.3-2.3,5.2-2.3c1.3-2.2,3.1-4.5,5.6-7c2.2-1.6,3.8-2.7,4.7-3.3
		c0.6-1.3,1.4-1.9,2.3-1.9h0.5l0.9-0.9c0.6-0.3,1.1-0.6,1.4-0.9v-2.3c0-1.6,0.2-2.8,0.5-3.8s1.1-1.4,2.3-1.4l1.9-1.9
		c-0.6-1.3-0.9-2.7-0.9-4.2h-0.5c-0.6-0.9-0.9-1.9-0.9-2.8c-0.9-1.6-1.6-2.8-1.9-3.8H-43c-0.3,0.9-1.1,1.6-2.3,1.9l-0.5,0.9
		c-1.3,2.2-2.3,3.8-3.3,4.9c-0.9,1.1-2.7,2.4-5.2,4c-1.6,1.6-2.7,3.3-3.3,5.2c-0.3,0.9-0.3,1.9,0,2.8l-0.5,0.9h0.5
		c0,0.6,0.2,0.9,0.5,0.9h0.5c0.6,0.3,0.9,0.7,0.9,1.2s-0.5,0.6-1.4,0.5c-0.9-0.2-1.6-0.5-2.1-0.9c-0.5-0.5-0.9-0.7-1.2-0.7l-1.4,1.4
		c-0.6,0.9-1.3,1.3-1.9,1.2c-0.6-0.2-0.8-0.4-0.5-0.7l0.5-0.5c0.3-0.6,0.3-0.9,0-0.9l-3.8,0.9c-0.3,0.3-0.7,0.3-1.2,0
		s-0.4-0.6,0.2-0.9l2.3-0.9c0-0.3-0.2-0.5-0.5-0.5c-1.3,0.6-2.5,0.8-3.8,0.5l-2.3-0.5L-73,139c0-0.3,0.2-0.5,0.5-0.5
		c1.3,0.3,2.8,0.2,4.7-0.5l3.3-1.4l3.8-4.2l0.5-0.9c1.3-2.5,2.6-4.8,4-6.8c1.4-2,2.9-3.7,4.5-4.9l0.5-1.9c0.6-1.3,1.3-2.3,1.9-3.3
		c0.6-0.9,1.4-2.2,2.3-3.8l1.4-1.9c1.3-1.9,2.7-2.8,4.2-2.8l1.4-1.4c0.3-0.3,0.5-0.8,0.5-1.4l0.9-0.9l-0.5-0.5
		c-1.9-1.6-2.8-3-2.8-4.2c-0.3-2.2,0.4-4.1,2.1-5.6c1.7-1.6,3.4-2.3,5.2-2.1s3,0.7,4,1.6l0.9,0.9c0.3,0,0.5,0.2,0.5,0.5l1.9,0.9v1.4
		c0.6,0.6,0.9,1.1,0.9,1.4c0.6-0.9,1.6-2,2.8-3.3l2.3-7.5c0-1.3,0.3-2.5,0.9-3.8l0.9-1.4v-0.9l1.4-5.6h0.9l1.4-5.6
		c0.3-0.9,0.3-2,0-3.3l-1.9-4.7L-18.6,56.9z">
  </path>
 </g>
</svg>